Coordinates
version=1
nRows=32
nColumns=12
inDegrees=yes

Units are S.I. units (second, meters, Newtons, ...)
Angles are in degrees

endheader
time	SC_y	SC_z	SC_x	AC_y	AC_z	AC_x	GH_y	GH_z	GH_yy	EL_x	PS_y
       0.0              -22.56          31.88          68.44          49.28           4.29          13.39          80.18          79.06          -58.1          125.9          72.79
   0.01041              -22.57          31.88          68.44          49.28          4.287          13.38          80.15          79.06         -58.08          125.9          72.79
   0.02081              -22.57          31.88          68.44          49.28          4.284          13.38          80.12          79.05         -58.06          125.9          72.78
   0.03122              -22.57          31.88          68.44          49.28           4.28          13.37          80.08          79.04         -58.03          125.9          72.78
   0.04162              -22.58          31.87          68.44          49.27          4.277          13.37          80.04          79.04         -58.01          125.9          72.77
   0.05203              -22.58          31.87          68.44          49.27          4.273          13.36           80.0          79.03         -57.98          125.9          72.77
   0.06243              -22.59          31.87          68.44          49.27          4.269          13.36          79.95          79.02         -57.95          125.9          72.76
   0.07284              -22.59          31.87          68.44          49.26          4.264          13.35           79.9          79.01         -57.92          125.9          72.75
   0.08324               -22.6          31.87          68.44          49.26           4.26          13.34          79.85           79.0         -57.89          125.9          72.75
   0.09365              -22.61          31.86          68.44          49.26          4.255          13.34           79.8          78.99         -57.85          125.9          72.74
    0.1041              -22.61          31.86          68.44          49.25          4.249          13.33          79.74          78.98         -57.81          125.9          72.73
    0.1145              -22.62          31.86          68.44          49.25          4.243          13.32          79.67          78.96         -57.77          125.9          72.72
    0.1249              -22.63          31.85          68.44          49.24          4.237          13.31          79.61          78.95         -57.72          125.9          72.71
    0.1353              -22.64          31.85          68.44          49.24           4.23           13.3          79.53          78.94         -57.67          125.9           72.7
    0.1457              -22.65          31.85          68.44          49.23          4.223          13.29          79.45          78.92         -57.62          125.9          72.69
    0.1561              -22.65          31.84          68.44          49.23          4.215          13.28          79.36           78.9         -57.56          125.9          72.68
    0.1665              -22.67          31.84          68.44          49.22          4.207          13.27          79.27          78.88          -57.5          125.9          72.67
    0.1769              -22.68          31.83          68.44          49.21          4.197          13.25          79.16          78.86         -57.43          125.9          72.65
    0.1873              -22.69          31.83          68.44          49.21          4.187          13.24          79.05          78.84         -57.36          125.9          72.64
    0.1977               -22.7          31.82          68.43           49.2          4.176          13.22          78.93          78.82         -57.28          125.9          72.62
    0.2081              -22.72          31.81          68.43          49.19          4.163           13.2          78.79          78.79         -57.19          125.9           72.6
    0.2185              -22.74          31.81          68.43          49.18           4.15          13.18          78.64          78.76         -57.09          125.9          72.58
    0.2289              -22.75           31.8          68.43          49.17          4.135          13.16          78.48          78.73         -56.98          125.9          72.56
    0.2393              -22.77          31.79          68.43          49.16          4.118          13.14           78.3          78.69         -56.86          125.9          72.53
    0.2497               -22.8          31.78          68.43          49.14            4.1          13.11          78.09          78.65         -56.73          125.9           72.5
    0.2601              -22.82          31.77          68.43          49.13          4.079          13.08          77.87          78.61         -56.58          125.9          72.47
    0.2705              -22.85          31.76          68.43          49.11          4.056          13.05          77.61          78.56         -56.41          125.9          72.44
     0.281              -22.88          31.75          68.43          49.09           4.03          13.01          77.33           78.5         -56.23          125.9           72.4
    0.2914              -22.92          31.73          68.43          49.07          4.001          12.97           77.0          78.44         -56.01          125.9          72.35
    0.3018              -22.96          31.71          68.42          49.04          3.968          12.92          76.64          78.36         -55.77          125.8           72.3
    0.3122              -23.01          31.69          68.42          49.02           3.93          12.86          76.22          78.28          -55.5          125.8          72.24
    0.3226              -23.06          31.67          68.42          48.98          3.886           12.8          75.74          78.19         -55.18          125.8          72.18
